<svg xmlns="http://www.w3.org/2000/svg" viewBox="0 0 24 24" fill="currentColor" stroke="currentColor" stroke-width="1"><path d="M12 13a4 4 0 0 0-4 4h8a4 4 0 0 0-4-4" /><path d="M16 17.01V17" /><path d="M8 17.01V17" /><path d="M17.4 8.5c-.4-.5-1-1-1.4-1.5" /><path d="M6.6 8.5c.4-.5 1-1 1.4-1.5" /><path d="M12 2a10 10 0 0 0-10 10c0 .2 0 .5.1.7.3-1.2 1.4-2.2 2.9-2.2s2.6 1 2.9 2.2c-1.7 1.2-3 3.1-3 5.3h14c0-2.2-1.3-4.1-3-5.3.3-1.2 1.4-2.2 2.9-2.2s2.6 1 2.9 2.2c.1-.2.1-.5.1-.7a10 10 0 0 0-10-10" /></svg>